<?xml version="1.0" encoding="UTF-8" standalone="no"?>
<!-- Created with Inkscape (http://www.inkscape.org/) -->

<svg
   width="1620"
   height="1080"
   viewBox="0 0 428.62499 285.75001"
   version="1.1"
   id="svg5"
   inkscape:version="1.1 (c68e22c387, 2021-05-23)"
   sodipodi:docname="theme.svg"
   xmlns:inkscape="http://www.inkscape.org/namespaces/inkscape"
   xmlns:sodipodi="http://sodipodi.sourceforge.net/DTD/sodipodi-0.dtd"
   xmlns="http://www.w3.org/2000/svg"
   xmlns:svg="http://www.w3.org/2000/svg">
  <sodipodi:namedview
     id="namedview7"
     pagecolor="#505050"
     bordercolor="#eeeeee"
     borderopacity="1"
     inkscape:pageshadow="0"
     inkscape:pageopacity="0"
     inkscape:pagecheckerboard="true"
     inkscape:document-units="mm"
     showgrid="false"
     units="px"
     width="1620px"
     inkscape:zoom="0.52410025"
     inkscape:cx="841.44207"
     inkscape:cy="560.00737"
     inkscape:window-width="1920"
     inkscape:window-height="1017"
     inkscape:window-x="1912"
     inkscape:window-y="-8"
     inkscape:window-maximized="1"
     inkscape:current-layer="layer2" />
  <defs
     id="defs2" />
  <g
     inkscape:groupmode="layer"
     id="g5365"
     inkscape:label="bg_transparent"
     style="display:inline">
    <rect
       style="fill:#ffffff;fill-opacity:0.5;fill-rule:evenodd;stroke-width:0.466133"
       id="rect5359"
       width="428.625"
       height="285.75"
       x="-4.2632564e-14"
       y="-4.2632564e-14" />
  </g>
  <g
     inkscape:groupmode="layer"
     id="g5373"
     inkscape:label="bg_opaque"
     style="display:inline">
    <rect
       style="display:inline;fill:#fcc675;fill-opacity:1;fill-rule:evenodd;stroke-width:0.466133"
       id="rect25182"
       width="428.625"
       height="285.75"
       x="0"
       y="0" />
  </g>
  <g
     inkscape:groupmode="layer"
     id="g5381"
     inkscape:label="fg_overlay"
     style="display:inline">
    <text
       xml:space="preserve"
       style="font-style:normal;font-weight:normal;font-size:52.9167px;line-height:1.25;font-family:sans-serif;fill:#000000;fill-opacity:1;stroke:none;stroke-width:0.0897488"
       x="289.1145"
       y="276.18738"
       id="text5379"><tspan
         sodipodi:role="line"
         id="tspan5377"
         style="font-style:normal;font-variant:normal;font-weight:bold;font-stretch:normal;font-size:52.9167px;font-family:'Amatic SC';-inkscape-font-specification:'Amatic SC Bold';stroke-width:0.0897488"
         x="289.1145"
         y="276.18738">cheesypic</tspan></text>
  </g>
  <g
     inkscape:groupmode="layer"
     id="layer2"
     inkscape:label="3"
     style="display:inline"
     cheesypic_background="bg_transparent">
    <text
       xml:space="preserve"
       style="font-style:normal;font-weight:normal;font-size:123.472px;line-height:1.25;font-family:sans-serif;fill:#000000;fill-opacity:1;stroke:none;stroke-width:0.264583"
       x="195.7917"
       y="189.23874"
       id="text1361"><tspan
         sodipodi:role="line"
         id="tspan1359"
         style="font-style:normal;font-variant:normal;font-weight:normal;font-stretch:normal;font-size:123.472px;font-family:'Amatic SC';-inkscape-font-specification:'Amatic SC';stroke-width:0.264583"
         x="195.7917"
         y="189.23874">3</tspan></text>
  </g>
  <g
     inkscape:groupmode="layer"
     id="g9829"
     inkscape:label="2"
     style="display:inline"
     cheesypic_background="bg_transparent">
    <text
       xml:space="preserve"
       style="font-style:normal;font-weight:normal;font-size:123.472px;line-height:1.25;font-family:sans-serif;fill:#000000;fill-opacity:1;stroke:none;stroke-width:0.264583"
       x="195.17435"
       y="190.16478"
       id="text9827"><tspan
         sodipodi:role="line"
         id="tspan9825"
         style="font-style:normal;font-variant:normal;font-weight:normal;font-stretch:normal;font-size:123.472px;font-family:'Amatic SC';-inkscape-font-specification:'Amatic SC';stroke-width:0.264583"
         x="195.17435"
         y="190.16478">2</tspan></text>
  </g>
  <g
     inkscape:groupmode="layer"
     id="g12349"
     inkscape:label="1"
     style="display:inline"
     cheesypic_background="bg_transparent">
    <text
       xml:space="preserve"
       style="font-style:normal;font-weight:normal;font-size:123.472px;line-height:1.25;font-family:sans-serif;fill:#000000;fill-opacity:1;stroke:none;stroke-width:0.264583"
       x="197.64378"
       y="189.177"
       id="text12347"><tspan
         sodipodi:role="line"
         id="tspan12345"
         style="font-style:normal;font-variant:normal;font-weight:normal;font-stretch:normal;font-size:123.472px;font-family:'Amatic SC';-inkscape-font-specification:'Amatic SC';stroke-width:0.264583"
         x="197.64378"
         y="189.177">1</tspan></text>
  </g>
  <g
     inkscape:groupmode="layer"
     id="g18574"
     inkscape:label="print"
     style="display:inline"
     cheesypic_background="bg_transparent">
    <text
       xml:space="preserve"
       style="font-style:normal;font-weight:normal;font-size:123.472px;line-height:1.25;font-family:sans-serif;fill:#000000;fill-opacity:1;stroke:none;stroke-width:0.264583"
       x="52.749771"
       y="182.81819"
       id="text18572"><tspan
         sodipodi:role="line"
         id="tspan18570"
         style="font-style:normal;font-variant:normal;font-weight:normal;font-stretch:normal;font-size:123.472px;font-family:'Amatic SC';-inkscape-font-specification:'Amatic SC';stroke-width:0.264583"
         x="52.749771"
         y="182.81819">printing</tspan></text>
  </g>
  <g
     inkscape:groupmode="layer"
     id="g21772"
     inkscape:label="push"
     style="display:inline"
     cheesypic_background="bg_transparent">
    <text
       xml:space="preserve"
       style="font-style:normal;font-weight:normal;font-size:123.472px;line-height:1.25;font-family:sans-serif;fill:#000000;fill-opacity:1;stroke:none;stroke-width:0.264583"
       x="139.79738"
       y="183.49728"
       id="text21770"><tspan
         sodipodi:role="line"
         id="tspan21768"
         style="font-style:normal;font-variant:normal;font-weight:normal;font-stretch:normal;font-size:123.472px;font-family:'Amatic SC';-inkscape-font-specification:'Amatic SC';stroke-width:0.264583"
         x="139.79738"
         y="183.49728">push</tspan></text>
  </g>
  <g
     inkscape:groupmode="layer"
     id="g25188"
     inkscape:label="smile"
     style="display:inline"
     cheesypic_background="bg_opaque">
    <text
       xml:space="preserve"
       style="font-style:normal;font-weight:normal;font-size:123.472px;line-height:1.25;font-family:sans-serif;fill:#000000;fill-opacity:1;stroke:none;stroke-width:0.264583"
       x="111.86089"
       y="98.395752"
       id="text25186"><tspan
         sodipodi:role="line"
         id="tspan25184"
         style="font-style:normal;font-variant:normal;font-weight:normal;font-stretch:normal;font-size:123.472px;font-family:'Amatic SC';-inkscape-font-specification:'Amatic SC';stroke-width:0.264583"
         x="111.86089"
         y="98.395752">smile</tspan></text>
    <g
       id="g5314"
       transform="translate(0,-1.0583333)">
      <path
         id="path31848"
         style="fill:#000000;stroke-width:0.231675"
         d="m 195.45929,145.39581 c 1.2367,-0.61377 1.86044,-1.49682 1.64987,-2.33581 -0.0896,-0.35718 -0.67442,-1.16086 -1.2995,-1.78593 l -1.1365,-1.1365 -1.39805,0.10113 c -2.99143,0.21638 -3.88377,2.30312 -2.06095,4.81946 l 0.7102,0.98041 1.31159,-0.0951 c 0.72138,-0.0524 1.72187,-0.29875 2.22334,-0.54763 z m -4.89353,2.68655 c -1.05959,-0.64607 -2.40854,-3.52496 -2.565,-5.47412 -0.11505,-1.43331 -0.0973,-1.49253 0.67809,-2.26796 0.86938,-0.86938 2.3693,-1.41887 4.54492,-1.66501 2.11822,-0.23964 3.16615,0.1636 4.88709,1.88059 1.47758,1.47418 1.4782,1.47536 1.36898,2.61196 -0.13835,1.43998 -0.75463,2.30564 -2.43575,3.42151 -2.78541,1.84885 -5.04189,2.36889 -6.47833,1.49303 z" />
      <path
         id="path31844"
         style="fill:#000000;stroke-width:0.231675"
         d="m 185.07742,170.39106 c 1.99947,-0.90013 3.97296,-3.09383 4.37102,-4.85877 0.49043,-2.17452 -1.21552,-6.74073 -3.08554,-8.25885 -2.1356,-1.73375 -6.03966,-3.14177 -7.80456,-2.81479 -2.92107,0.54119 -6.08849,4.07651 -6.43908,7.18701 -0.19945,1.76947 1.3453,5.66037 2.76098,6.95433 1.22732,1.12178 1.46798,1.2651 3.13585,1.86746 1.34746,0.48664 1.89575,0.5578 3.77718,0.49027 1.60925,-0.0578 2.49213,-0.2101 3.28415,-0.56666 z m -6.48676,2.23494 c -3.14992,-0.61988 -6.22923,-3.36172 -8.23415,-7.33177 -0.50534,-1.00065 -0.61035,-1.52244 -0.61035,-3.03269 0,-1.57389 0.0979,-2.02003 0.71376,-3.25247 0.89533,-1.7917 3.40841,-4.39853 4.96228,-5.14739 0.97206,-0.46845 1.59082,-0.57182 3.84692,-0.64262 1.52027,-0.0477 3.25812,0.0339 3.99932,0.18774 4.20008,0.87193 7.61155,4.20376 8.60094,8.40016 0.52793,2.23917 0.45357,3.92628 -0.23275,5.28066 -0.7644,1.50848 -2.74715,3.43537 -4.4918,4.36525 -2.25976,1.20445 -5.87538,1.70029 -8.55417,1.17313 z" />
      <path
         id="path31840"
         style="fill:#000000;stroke-width:0.231675"
         d="m 227.31278,178.09897 c 1.87388,-0.55648 2.67565,-2.05931 2.14668,-4.02375 -0.38793,-1.44065 -0.91208,-1.92246 -2.22909,-2.04901 -1.8205,-0.17493 -2.76679,0.34211 -3.48089,1.90191 -0.72158,1.57615 -0.6054,2.35337 0.54154,3.6229 0.90735,1.00432 1.266,1.06936 3.02176,0.54795 z m -3.30452,2.23024 c -1.09378,-0.5064 -2.06704,-1.48779 -2.43636,-2.45672 -0.34987,-0.91789 -0.34256,-3.63355 0.0117,-4.32094 0.52537,-1.01961 1.46566,-1.81639 2.67953,-2.27055 4.37877,-1.63831 6.80566,-0.15172 6.81,4.17147 0.002,2.06983 -1.46709,3.98612 -3.79172,4.94567 -1.16654,0.48152 -2.12789,0.46128 -3.27309,-0.0689 z" />
      <path
         id="path31836"
         style="fill:#000000;stroke-width:0.231675"
         d="m 215.72157,222.26664 c 18.32479,-0.64497 24.48862,-0.83502 34.17209,-1.05359 9.90876,-0.22366 11.41501,-0.34946 11.27395,-0.94157 -0.043,-0.18039 -0.0675,-4.11997 -0.0546,-8.75462 0.02,-7.10751 -0.0486,-9.01155 -0.43745,-12.16296 -0.55,-4.45745 -0.93569,-9.11337 -0.93569,-11.29497 0,-1.54315 -0.0162,-1.58685 -0.63711,-1.70762 -2.79676,-0.54408 -5.13833,-1.57302 -6.4263,-2.82388 -1.9625,-1.90595 -2.56455,-4.12851 -2.19021,-8.0853 0.24724,-2.61328 0.6577,-3.50653 2.34422,-5.10157 1.53645,-1.45312 2.74175,-2.22711 4.34167,-2.78807 0.87404,-0.30644 1.29552,-0.59828 1.45895,-1.01013 0.26147,-0.65904 0.0948,-5.04592 -0.20292,-5.34131 -0.1068,-0.10597 -1.60162,-0.57303 -3.32181,-1.03791 -6.55011,-1.77016 -8.73661,-3.46397 -10.70464,-8.29254 -1.68488,-4.13383 -2.16684,-7.73847 -1.44572,-10.81252 0.56308,-2.40031 2.6239,-6.46039 3.7826,-7.45219 2.03341,-1.74053 5.17954,-2.97542 8.48128,-3.32901 l 1.54688,-0.16566 -0.14071,-3.8515 c -0.0774,-2.11832 -0.19945,-4.70857 -0.27126,-5.75611 l -0.13052,-1.90462 -0.84856,-0.15951 c -1.11726,-0.21002 -26.72472,0.0616 -46.25689,0.49053 -8.53722,0.18751 -17.31323,0.3431 -19.5022,0.34576 l -3.97996,0.004 -0.3732,1.2838 c -0.52293,1.79878 -1.63804,2.94442 -3.92503,4.03245 -2.46762,1.17396 -3.94441,1.49337 -6.19226,1.3393 -3.78062,-0.25913 -7.60572,-2.95936 -8.34366,-5.88999 l -0.25064,-0.9954 -1.53654,0.13229 c -0.84509,0.0728 -3.28112,0.2062 -5.41339,0.29654 -2.62586,0.11127 -3.97149,0.25897 -4.17015,0.45775 -0.4278,0.42805 -0.30578,3.76385 0.26292,7.18798 0.5234,3.15138 0.70225,7.21552 1.3014,29.57083 0.52378,19.54405 0.95125,28.34668 1.62006,33.36124 0.37122,2.78326 0.82405,9.58848 1.40286,21.08244 0.20533,4.07749 0.49438,8.03913 0.64234,8.80367 l 0.269,1.39005 3.35929,0.0496 c 1.84762,0.0272 7.11243,0.21781 11.6996,0.42346 15.31594,0.68664 16.64666,0.73011 23.3992,0.76438 3.69523,0.0187 11.04512,-0.11818 16.33311,-0.3043 z m -74.93381,63.76859 c -1.77685,-2.5368 3.611,-20.59593 8.14453,-27.29903 4.94462,-7.31093 15.00941,-14.4657 24.74022,-17.58712 3.72516,-1.19494 13.20316,-3.6205 14.99353,-3.83707 1.40195,-0.16958 1.42294,-0.19116 1.68412,-1.73043 0.17028,-1.00348 0.78724,-10.74266 0.68753,-10.85293 -0.11311,-0.12507 -8.4267,-0.6735 -14.81676,-0.97743 -3.48625,-0.16582 -7.85012,-0.21257 -10.96231,-0.11744 l -5.17042,0.15804 -1.02263,-0.59929 c -0.56244,-0.32962 -1.12438,-0.78944 -1.24875,-1.02183 -0.44672,-0.83471 -0.64613,-3.92439 -1.52682,-23.65716 -0.19052,-4.26862 -0.49798,-9.89832 -0.68326,-12.51046 -0.38094,-5.37068 -0.65954,-13.84999 -1.16464,-35.44632 -0.49072,-20.9818 -0.62461,-23.20047 -1.86995,-30.98842 -0.13262,-0.82934 -0.0828,-0.98199 0.43019,-1.31811 0.70833,-0.46412 3.85273,-0.74407 10.84461,-0.96549 l 5.0178,-0.15892 0.0964,1.51374 c 0.11494,1.80519 0.85331,3.10048 2.28121,4.00188 1.05009,0.66289 3.16356,1.27267 4.41101,1.27267 1.0929,0 4.32055,-0.82777 5.02344,-1.28831 0.78725,-0.51583 1.39638,-1.60158 1.96413,-3.501 l 0.49668,-1.6617 1.52268,-0.1134 c 0.83747,-0.0623 7.93429,-0.22201 15.77071,-0.35474 7.83642,-0.13274 14.9778,-0.29882 15.86975,-0.36908 0.89195,-0.0702 6.05251,-0.23193 11.46793,-0.35927 5.41541,-0.12735 13.94153,-0.34392 18.94692,-0.48127 5.0054,-0.13736 9.52423,-0.17819 10.04184,-0.0907 0.77759,0.13138 0.99602,0.29047 1.25728,0.91572 0.47366,1.13366 0.83511,5.44497 0.87698,10.46075 0.0321,3.83912 -0.0155,4.52048 -0.33753,4.84444 -0.28243,0.28406 -1.09397,0.42408 -3.29227,0.56798 -3.62648,0.23742 -5.00613,0.67085 -6.32111,1.98584 -1.15105,1.15104 -2.95023,4.57106 -3.46806,6.5923 -0.51191,1.99822 -0.51421,5.11062 -0.005,7.06254 0.66756,2.55995 2.0383,5.27447 3.37954,6.69263 1.69003,1.78696 3.67919,2.74828 8.16094,3.94403 l 3.77438,1.00701 -0.018,3.44518 c -0.0165,3.15078 -0.23925,4.80057 -0.75621,5.60056 -0.10733,0.16609 -0.78244,0.43851 -1.50024,0.60536 -2.82305,0.65625 -5.28604,2.82049 -5.64553,4.96078 -0.32814,1.95365 -0.17401,4.7256 0.32513,5.84716 0.87391,1.9636 3.01473,3.43093 6.23112,4.27085 2.53842,0.66288 2.45131,0.46464 2.66619,6.06695 0.1707,4.45068 0.29592,5.89922 0.89737,10.38145 0.24819,1.84973 0.27053,20.31707 0.0256,21.19828 l -0.16096,0.57919 -6.93995,0.39487 c -4.13204,0.23509 -10.01405,0.38777 -14.53783,0.37733 -4.17883,-0.01 -7.65206,0.0367 -7.71829,0.10288 -0.0662,0.0662 -0.0355,3.18042 0.0685,6.92044 l 0.18893,6.80002 2.08507,0.1535 c 4.69451,0.3456 11.94836,2.52951 17.14396,5.16152 5.72251,2.89892 10.56473,6.41038 14.59555,10.5843 4.58939,4.75234 7.60527,9.85625 10.10162,17.0955 1.75577,5.09162 3.30299,12.30156 3.17337,14.78753 -0.0658,1.26175 -0.10346,1.33672 -0.7065,1.40611 -0.81276,0.0935 -0.89069,-0.11058 -1.67338,-4.38126 -2.32234,-12.67146 -6.39957,-21.5092 -12.98019,-28.1355 -2.13643,-2.15127 -4.4555,-3.95538 -8.4939,-6.60783 -7.22049,-4.74241 -16.93462,-8.0694 -23.62267,-8.09051 -1.27699,-0.004 -2.03875,-0.39568 -1.73272,-0.89084 0.0721,-0.1166 0.0259,-2.28444 -0.10247,-4.81741 -0.12843,-2.53298 -0.29372,-5.89212 -0.36731,-7.46476 l -0.13382,-2.85934 -2.58179,0.13851 c -1.41998,0.0762 -9.2019,0.348 -17.29317,0.60406 -8.09125,0.25606 -15.45155,0.52352 -16.35619,0.59435 l -1.64483,0.12878 -0.15547,3.63238 c -0.22725,5.30958 -0.76459,10.06565 -1.17103,10.36508 -0.1835,0.1352 -1.25289,0.36831 -2.37641,0.51803 -3.86473,0.51502 -13.79095,3.18799 -17.71802,4.77117 -8.1552,3.28773 -16.08965,9.05994 -20.40965,14.84777 -3.88117,5.19989 -8.41724,17.92214 -8.89236,24.94022 -0.0808,1.19375 -0.2497,2.30077 -0.37531,2.46004 -0.35443,0.44947 -1.03503,0.34244 -1.4327,-0.22531 z" />
      <path
         style="fill:#000000;fill-opacity:1;stroke-width:0.264583"
         id="path32317"
         d="m 197.93302,202.87766 c -0.16091,3.09038 0.67561,5.20137 2.51986,7.62515 1.56914,1.7307 3.0469,2.20553 5.29515,1.59623 0.66841,-0.33932 1.13138,-0.49838 1.63659,-1.12712 0.91598,-1.13994 1.44618,-3.09346 1.76634,-4.49787 0.24876,-0.88353 0.31171,-1.79021 0.35149,-2.70075 0.1114,-1.39729 -1.86467,-1.55485 -1.97608,-0.15756 v 0 c -0.0411,0.81846 -0.24558,1.57664 -0.34152,2.39112 -0.17461,0.89911 -0.81523,3.33147 -1.5367,3.93309 -0.1262,0.10523 -0.29788,0.1388 -0.44683,0.2082 -1.27789,0.44974 -2.22918,0.1219 -3.18165,-0.8444 -1.46819,-1.93828 -2.21732,-3.96674 -2.12783,-6.42609 0,-1.3851 -1.95882,-1.3851 -1.95882,0 z" />
    </g>
  </g>
  <g
     inkscape:groupmode="layer"
     id="g865"
     inkscape:label="fail"
     style="display:inline"
     cheesypic_background="bg_opaque">
    <text
       xml:space="preserve"
       style="font-style:normal;font-weight:normal;font-size:88.1944px;line-height:1.25;font-family:sans-serif;fill:#000000;fill-opacity:1;stroke:none;stroke-width:0.264583"
       x="142.81743"
       y="87.034843"
       id="text853"><tspan
         sodipodi:role="line"
         id="tspan851"
         style="font-style:normal;font-variant:normal;font-weight:normal;font-stretch:normal;font-size:88.1944px;font-family:'Amatic SC';-inkscape-font-specification:'Amatic SC';stroke-width:0.264583"
         x="142.81743"
         y="87.034843">failed</tspan></text>
    <g
       id="g5307"
       transform="translate(0,-1.0583333)">
      <path
         id="path855"
         style="fill:#000000;stroke-width:0.231675"
         d="m 195.45929,145.39581 c 1.2367,-0.61377 1.86044,-1.49682 1.64987,-2.33581 -0.0896,-0.35718 -0.67442,-1.16086 -1.2995,-1.78593 l -1.1365,-1.1365 -1.39805,0.10113 c -2.99143,0.21638 -3.88377,2.30312 -2.06095,4.81946 l 0.7102,0.98041 1.31159,-0.0951 c 0.72138,-0.0524 1.72187,-0.29875 2.22334,-0.54763 z m -4.89353,2.68655 c -1.05959,-0.64607 -2.40854,-3.52496 -2.565,-5.47412 -0.11505,-1.43331 -0.0973,-1.49253 0.67809,-2.26796 0.86938,-0.86938 2.3693,-1.41887 4.54492,-1.66501 2.11822,-0.23964 3.16615,0.1636 4.88709,1.88059 1.47758,1.47418 1.4782,1.47536 1.36898,2.61196 -0.13835,1.43998 -0.75463,2.30564 -2.43575,3.42151 -2.78541,1.84885 -5.04189,2.36889 -6.47833,1.49303 z" />
      <path
         id="path857"
         style="fill:#000000;stroke-width:0.231675"
         d="m 185.07742,170.39106 c 1.99947,-0.90013 3.97296,-3.09383 4.37102,-4.85877 0.49043,-2.17452 -1.21552,-6.74073 -3.08554,-8.25885 -2.1356,-1.73375 -6.03966,-3.14177 -7.80456,-2.81479 -2.92107,0.54119 -6.08849,4.07651 -6.43908,7.18701 -0.19945,1.76947 1.3453,5.66037 2.76098,6.95433 1.22732,1.12178 1.46798,1.2651 3.13585,1.86746 1.34746,0.48664 1.89575,0.5578 3.77718,0.49027 1.60925,-0.0578 2.49213,-0.2101 3.28415,-0.56666 z m -6.48676,2.23494 c -3.14992,-0.61988 -6.22923,-3.36172 -8.23415,-7.33177 -0.50534,-1.00065 -0.61035,-1.52244 -0.61035,-3.03269 0,-1.57389 0.0979,-2.02003 0.71376,-3.25247 0.89533,-1.7917 3.40841,-4.39853 4.96228,-5.14739 0.97206,-0.46845 1.59082,-0.57182 3.84692,-0.64262 1.52027,-0.0477 3.25812,0.0339 3.99932,0.18774 4.20008,0.87193 7.61155,4.20376 8.60094,8.40016 0.52793,2.23917 0.45357,3.92628 -0.23275,5.28066 -0.7644,1.50848 -2.74715,3.43537 -4.4918,4.36525 -2.25976,1.20445 -5.87538,1.70029 -8.55417,1.17313 z" />
      <path
         id="path859"
         style="fill:#000000;stroke-width:0.231675"
         d="m 227.31278,178.09897 c 1.87388,-0.55648 2.67565,-2.05931 2.14668,-4.02375 -0.38793,-1.44065 -0.91208,-1.92246 -2.22909,-2.04901 -1.8205,-0.17493 -2.76679,0.34211 -3.48089,1.90191 -0.72158,1.57615 -0.6054,2.35337 0.54154,3.6229 0.90735,1.00432 1.266,1.06936 3.02176,0.54795 z m -3.30452,2.23024 c -1.09378,-0.5064 -2.06704,-1.48779 -2.43636,-2.45672 -0.34987,-0.91789 -0.34256,-3.63355 0.0117,-4.32094 0.52537,-1.01961 1.46566,-1.81639 2.67953,-2.27055 4.37877,-1.63831 6.80566,-0.15172 6.81,4.17147 0.002,2.06983 -1.46709,3.98612 -3.79172,4.94567 -1.16654,0.48152 -2.12789,0.46128 -3.27309,-0.0689 z" />
      <path
         id="path861"
         style="fill:#000000;stroke-width:0.231675"
         d="m 215.72157,222.26664 c 18.32479,-0.64497 24.48862,-0.83502 34.17209,-1.05359 9.90876,-0.22366 11.41501,-0.34946 11.27395,-0.94157 -0.043,-0.18039 -0.0675,-4.11997 -0.0546,-8.75462 0.02,-7.10751 -0.0486,-9.01155 -0.43745,-12.16296 -0.55,-4.45745 -0.93569,-9.11337 -0.93569,-11.29497 0,-1.54315 -0.0162,-1.58685 -0.63711,-1.70762 -2.79676,-0.54408 -5.13833,-1.57302 -6.4263,-2.82388 -1.9625,-1.90595 -2.56455,-4.12851 -2.19021,-8.0853 0.24724,-2.61328 0.6577,-3.50653 2.34422,-5.10157 1.53645,-1.45312 2.74175,-2.22711 4.34167,-2.78807 0.87404,-0.30644 1.29552,-0.59828 1.45895,-1.01013 0.26147,-0.65904 0.0948,-5.04592 -0.20292,-5.34131 -0.1068,-0.10597 -1.60162,-0.57303 -3.32181,-1.03791 -6.55011,-1.77016 -8.73661,-3.46397 -10.70464,-8.29254 -1.68488,-4.13383 -2.16684,-7.73847 -1.44572,-10.81252 0.56308,-2.40031 2.6239,-6.46039 3.7826,-7.45219 2.03341,-1.74053 5.17954,-2.97542 8.48128,-3.32901 l 1.54688,-0.16566 -0.14071,-3.8515 c -0.0774,-2.11832 -0.19945,-4.70857 -0.27126,-5.75611 l -0.13052,-1.90462 -0.84856,-0.15951 c -1.11726,-0.21002 -26.72472,0.0616 -46.25689,0.49053 -8.53722,0.18751 -17.31323,0.3431 -19.5022,0.34576 l -3.97996,0.004 -0.3732,1.2838 c -0.52293,1.79878 -1.63804,2.94442 -3.92503,4.03245 -2.46762,1.17396 -3.94441,1.49337 -6.19226,1.3393 -3.78062,-0.25913 -7.60572,-2.95936 -8.34366,-5.88999 l -0.25064,-0.9954 -1.53654,0.13229 c -0.84509,0.0728 -3.28112,0.2062 -5.41339,0.29654 -2.62586,0.11127 -3.97149,0.25897 -4.17015,0.45775 -0.4278,0.42805 -0.30578,3.76385 0.26292,7.18798 0.5234,3.15138 0.70225,7.21552 1.3014,29.57083 0.52378,19.54405 0.95125,28.34668 1.62006,33.36124 0.37122,2.78326 0.82405,9.58848 1.40286,21.08244 0.20533,4.07749 0.49438,8.03913 0.64234,8.80367 l 0.269,1.39005 3.35929,0.0496 c 1.84762,0.0272 7.11243,0.21781 11.6996,0.42346 15.31594,0.68664 16.64666,0.73011 23.3992,0.76438 3.69523,0.0187 11.04512,-0.11818 16.33311,-0.3043 z m -74.93381,63.76859 c -1.77685,-2.5368 3.611,-20.59593 8.14453,-27.29903 4.94462,-7.31093 15.00941,-14.4657 24.74022,-17.58712 3.72516,-1.19494 13.20316,-3.6205 14.99353,-3.83707 1.40195,-0.16958 1.42294,-0.19116 1.68412,-1.73043 0.17028,-1.00348 0.78724,-10.74266 0.68753,-10.85293 -0.11311,-0.12507 -8.4267,-0.6735 -14.81676,-0.97743 -3.48625,-0.16582 -7.85012,-0.21257 -10.96231,-0.11744 l -5.17042,0.15804 -1.02263,-0.59929 c -0.56244,-0.32962 -1.12438,-0.78944 -1.24875,-1.02183 -0.44672,-0.83471 -0.64613,-3.92439 -1.52682,-23.65716 -0.19052,-4.26862 -0.49798,-9.89832 -0.68326,-12.51046 -0.38094,-5.37068 -0.65954,-13.84999 -1.16464,-35.44632 -0.49072,-20.9818 -0.62461,-23.20047 -1.86995,-30.98842 -0.13262,-0.82934 -0.0828,-0.98199 0.43019,-1.31811 0.70833,-0.46412 3.85273,-0.74407 10.84461,-0.96549 l 5.0178,-0.15892 0.0964,1.51374 c 0.11494,1.80519 0.85331,3.10048 2.28121,4.00188 1.05009,0.66289 3.16356,1.27267 4.41101,1.27267 1.0929,0 4.32055,-0.82777 5.02344,-1.28831 0.78725,-0.51583 1.39638,-1.60158 1.96413,-3.501 l 0.49668,-1.6617 1.52268,-0.1134 c 0.83747,-0.0623 7.93429,-0.22201 15.77071,-0.35474 7.83642,-0.13274 14.9778,-0.29882 15.86975,-0.36908 0.89195,-0.0702 6.05251,-0.23193 11.46793,-0.35927 5.41541,-0.12735 13.94153,-0.34392 18.94692,-0.48127 5.0054,-0.13736 9.52423,-0.17819 10.04184,-0.0907 0.77759,0.13138 0.99602,0.29047 1.25728,0.91572 0.47366,1.13366 0.83511,5.44497 0.87698,10.46075 0.0321,3.83912 -0.0155,4.52048 -0.33753,4.84444 -0.28243,0.28406 -1.09397,0.42408 -3.29227,0.56798 -3.62648,0.23742 -5.00613,0.67085 -6.32111,1.98584 -1.15105,1.15104 -2.95023,4.57106 -3.46806,6.5923 -0.51191,1.99822 -0.51421,5.11062 -0.005,7.06254 0.66756,2.55995 2.0383,5.27447 3.37954,6.69263 1.69003,1.78696 3.67919,2.74828 8.16094,3.94403 l 3.77438,1.00701 -0.018,3.44518 c -0.0165,3.15078 -0.23925,4.80057 -0.75621,5.60056 -0.10733,0.16609 -0.78244,0.43851 -1.50024,0.60536 -2.82305,0.65625 -5.28604,2.82049 -5.64553,4.96078 -0.32814,1.95365 -0.17401,4.7256 0.32513,5.84716 0.87391,1.9636 3.01473,3.43093 6.23112,4.27085 2.53842,0.66288 2.45131,0.46464 2.66619,6.06695 0.1707,4.45068 0.29592,5.89922 0.89737,10.38145 0.24819,1.84973 0.27053,20.31707 0.0256,21.19828 l -0.16096,0.57919 -6.93995,0.39487 c -4.13204,0.23509 -10.01405,0.38777 -14.53783,0.37733 -4.17883,-0.01 -7.65206,0.0367 -7.71829,0.10288 -0.0662,0.0662 -0.0355,3.18042 0.0685,6.92044 l 0.18893,6.80002 2.08507,0.1535 c 4.69451,0.3456 11.94836,2.52951 17.14396,5.16152 5.72251,2.89892 10.56473,6.41038 14.59555,10.5843 4.58939,4.75234 7.60527,9.85625 10.10162,17.0955 1.75577,5.09162 3.30299,12.30156 3.17337,14.78753 -0.0658,1.26175 -0.10346,1.33672 -0.7065,1.40611 -0.81276,0.0935 -0.89069,-0.11058 -1.67338,-4.38126 -2.32234,-12.67146 -6.39957,-21.5092 -12.98019,-28.1355 -2.13643,-2.15127 -4.4555,-3.95538 -8.4939,-6.60783 -7.22049,-4.74241 -16.93462,-8.0694 -23.62267,-8.09051 -1.27699,-0.004 -2.03875,-0.39568 -1.73272,-0.89084 0.0721,-0.1166 0.0259,-2.28444 -0.10247,-4.81741 -0.12843,-2.53298 -0.29372,-5.89212 -0.36731,-7.46476 l -0.13382,-2.85934 -2.58179,0.13851 c -1.41998,0.0762 -9.2019,0.348 -17.29317,0.60406 -8.09125,0.25606 -15.45155,0.52352 -16.35619,0.59435 l -1.64483,0.12878 -0.15547,3.63238 c -0.22725,5.30958 -0.76459,10.06565 -1.17103,10.36508 -0.1835,0.1352 -1.25289,0.36831 -2.37641,0.51803 -3.86473,0.51502 -13.79095,3.18799 -17.71802,4.77117 -8.1552,3.28773 -16.08965,9.05994 -20.40965,14.84777 -3.88117,5.19989 -8.41724,17.92214 -8.89236,24.94022 -0.0808,1.19375 -0.2497,2.30077 -0.37531,2.46004 -0.35443,0.44947 -1.03503,0.34244 -1.4327,-0.22531 z" />
      <path
         style="fill:#000000;stroke-width:0.264583"
         id="path980"
         d="m 201.99355,205.4488 c 1.99243,0.0514 3.97642,0.23632 5.96635,0.36509 0.98891,0.0828 0.50705,0.0608 1.4453,0.0718 1.39756,0.0715 1.49867,-1.90495 0.10111,-1.97645 v 0 c -0.90118,-0.0744 -0.43536,-0.0505 -1.39775,-0.0657 -2.02898,-0.19711 -4.07925,-0.34344 -6.11501,-0.36995 -1.39669,0 -1.39669,1.9752 0,1.9752 z" />
    </g>
  </g>
</svg>
